<svg width="338" height="175" viewBox="0 0 338 175" fill="none" xmlns="http://www.w3.org/2000/svg">
    <ellipse cx="168.636" cy="156.439" rx="168.636" ry="18.5606" fill="#488DDE"/>
    <path d="M78.6508 35.3807C72.3067 53.402 61.2679 71.4232 49.8485 82.8451C52.3862 86.5255 56.5733 94.7747 57.969 98.582C60.7604 95.5361 63.6787 92.1096 66.4701 88.3023V153.153H80.9347V65.8392C85.6293 57.4631 89.6896 48.5794 92.9885 39.8226L78.6508 35.3807ZM102.124 91.3481C99.2057 105.435 93.8767 119.776 86.6444 128.66C90.324 130.563 96.6681 134.371 99.5864 136.782C106.692 126.502 113.163 110.512 116.842 94.3939L102.124 91.3481ZM154.907 71.5501C154.273 77.1342 153.511 82.4644 152.877 86.3986L165.692 88.5561C167.468 81.1953 169.625 69.3926 171.148 59.1129L160.49 57.0824L158.079 57.59H114.432C116.715 51.3714 118.746 45.1528 120.395 38.6804L105.677 35.3807C101.363 52.7674 93.7498 70.281 84.1067 81.0684C87.5326 83.3528 93.6229 88.3023 96.2874 90.9674C100.475 85.6371 104.662 78.9109 108.214 71.5501H122.933V136.274C122.933 137.924 122.298 138.432 120.649 138.432C118.872 138.432 113.543 138.432 108.214 138.305C110.498 142.366 112.782 149.092 113.417 153.534C121.537 153.534 127.627 152.9 132.068 150.488C136.636 147.95 137.905 143.762 137.905 136.528V71.5501H154.907ZM142.473 94.6478C148.563 107.72 153.892 125.106 155.288 136.401L169.752 131.452C167.976 120.03 162.52 103.151 155.922 90.079L142.473 94.6478Z" fill="#1B5BA6"/>
    <path d="M214.922 73.9614C213.4 86.9062 210.989 98.3282 207.309 108.227C204.137 105.943 200.965 103.785 197.92 101.882C199.95 92.9979 201.98 83.6066 204.011 73.9614H214.922ZM220.886 59.7475L218.348 60.1282H206.929C208.578 51.879 210.101 43.7568 211.37 36.2691L197.159 35C196.017 42.7415 194.494 51.3714 192.845 60.1282H180.284V73.9614H190.18C187.135 88.683 183.963 102.897 181.045 113.304L193.479 119.776L194.494 115.842C196.778 117.492 199.062 119.268 201.346 121.045C196.017 130.31 189.165 137.416 180.664 141.858C183.709 144.65 187.643 149.981 189.673 153.788C199.062 147.95 206.675 140.462 212.765 130.563C217.333 134.878 221.267 139.066 223.931 142.62L233.067 130.436C229.895 126.375 224.946 121.807 219.363 117.238C225.2 102.643 228.626 84.2411 230.021 61.1435L220.886 59.7475ZM298.03 85.1295H270.116V77.8956C278.998 69.5196 288.387 57.7169 295.112 47.8179L285.215 40.4571L282.17 41.2186H232.559V55.1787H272.019C268.467 60.5089 264.026 66.093 259.839 70.4079H255.144V85.1295H228.372V99.3434H255.144V136.401C255.144 138.178 254.51 138.686 252.353 138.686C250.323 138.812 243.598 138.686 237.127 138.432C239.284 142.62 241.821 149.092 242.583 153.28C251.845 153.407 258.697 152.9 263.772 150.488C268.721 148.204 270.116 144.143 270.116 136.528V99.3434H298.03V85.1295Z" fill="#1B5BA6"/>
    <path fill-rule="evenodd" clip-rule="evenodd" d="M267.088 12.4692C267.881 11.5389 268.417 10.3987 268.327 9.12107C268.069 5.43991 262.945 6.24972 261.948 8.10765C260.951 9.96559 261.07 14.6784 262.358 15.0105C262.872 15.1429 263.966 14.8185 265.08 14.1471L264.381 19.0934H268.509L267.088 12.4692Z" fill="#80B8FA"/>
    <path fill-rule="evenodd" clip-rule="evenodd" d="M264.301 5.96631C264.845 5.87709 266.31 5.81574 266.58 5.81578C266.753 5.81578 266.94 5.85523 267.042 5.69669C267.126 5.56687 267.096 5.34731 267.121 5.19666C267.15 5.02166 267.191 4.84891 267.232 4.67659C267.351 4.18626 267.53 3.71977 267.782 3.2818C268.253 2.46011 268.943 1.81648 269.814 1.44195C270.776 1.02841 271.864 0.933716 272.899 1.0176C274.006 1.10734 275.009 1.47288 276.054 1.81687C277.05 2.14467 278.094 2.2737 279.136 2.11362C280.186 1.95235 280.979 1.38333 281.865 0.843262C282.771 0.29036 283.807 -0.0712588 284.879 0.0118686C285.879 0.0894912 286.801 0.502554 287.628 1.05435C288.402 1.57062 289.041 2.19176 289.402 3.06596C289.789 4.00634 289.789 5.03857 289.151 5.86964C288.227 7.0743 286.51 7.38582 285.083 7.35485C284.257 7.33699 283.445 7.18622 282.666 6.91196C281.626 6.54619 280.727 5.92624 279.754 5.42323C279.298 5.1872 278.826 4.99334 278.331 4.8537C277.851 4.71813 277.378 4.65596 276.944 4.94593C276.484 5.2527 276.072 5.55404 275.546 5.74608C275.041 5.93031 274.507 6.03336 273.969 6.0292C272.923 6.02112 271.892 5.69523 270.876 5.47694C270.048 5.29896 269.162 5.12157 268.317 5.29266C267.965 5.36407 267.45 5.51147 267.323 5.87772C269.465 6.26599 270.306 8.91546 269.702 10.8604C269.376 11.9102 267.417 13.1374 266.655 12.5855C266.173 12.2358 266.466 11.7768 266.655 11.4738C267.018 10.8936 267.143 10.1482 266.471 9.7442C265.891 9.39577 265.282 10.2232 265.27 10.2223C265.111 10.2097 263.734 9.43122 262.786 8.29518C261.85 8.35064 261.708 7.73371 261.932 7.22917C262.155 6.72464 263.549 6.08968 264.301 5.96631Z" fill="#1B5BA6"/>
    <path fill-rule="evenodd" clip-rule="evenodd" d="M245.2 61.3501C247.404 56.4721 248.998 52.2246 249.638 49.9836C250.733 46.1464 251.567 42.7699 251.777 41.5089C252.28 38.5021 247.914 38.327 247.337 39.8213C246.463 42.0831 244.938 49.5144 243.106 60.7391L245.2 61.3501ZM270.765 46.0416C268.743 45.2423 261.662 42.7409 258.246 42.0333C257.265 41.83 256.314 41.6411 255.419 41.4703C252.761 40.9628 251.384 45.7585 253.944 46.1269C260.32 47.0446 269.359 47.9922 270.133 48.0985C271.217 48.2476 272.036 46.544 270.765 46.0416Z" fill="#80B8FA"/>
    <path fill-rule="evenodd" clip-rule="evenodd" d="M253.787 40.1506L264.725 34.5826V33.3705H263.424C252.843 36.0669 247.435 37.7949 247.202 38.5546C247.2 38.5628 247.198 38.5709 247.196 38.5791C247.19 38.5861 247.185 38.5932 247.18 38.6002C245.083 41.4843 243.827 55.5648 243.415 56.6191L247.433 57.2186C248.97 51.5184 253.888 47.5475 253.758 40.7204C253.793 40.5202 253.802 40.3302 253.787 40.1506Z" fill="#29578D"/>
    <path fill-rule="evenodd" clip-rule="evenodd" d="M263.816 43.4574C264.817 43.2571 265.739 43.0783 266.527 42.94C271.621 42.0465 273.107 39.3198 272.229 33.3705H262.843C261.31 33.8109 253.342 37.1522 249.209 38.9293C246.472 40.1055 247.335 44.3457 248.884 45.4491C248.893 45.5168 248.921 45.5628 248.97 45.5834C257.305 49.0379 263.899 47.2253 266.101 47.8045L267.12 44.5906L263.816 43.4574Z" fill="#1268CE"/>
    <path fill-rule="evenodd" clip-rule="evenodd" d="M270.074 45.5308C270.62 45.583 271.007 45.665 271.237 45.7768C271.515 45.9128 271.9 46.1577 272.389 46.5114C272.231 46.8348 270.814 49.7415 268.136 55.2314C267.276 55.0926 266.936 54.7645 267.114 54.2472C267.293 53.7298 267.436 53.298 267.546 52.9516L267.716 48.0174C267.719 47.9224 267.799 47.8481 267.894 47.8514C267.895 47.8514 267.897 47.8515 267.898 47.8516L268.657 47.8993C269.089 47.5502 269.373 47.2344 269.511 46.9518C269.623 46.7222 269.685 46.3599 269.697 45.865L269.697 45.865C269.701 45.675 269.859 45.5247 270.049 45.5293C270.057 45.5295 270.065 45.53 270.074 45.5308Z" fill="#E4E4E4"/>
    <path fill-rule="evenodd" clip-rule="evenodd" d="M246.203 60.4457C246.396 60.9594 246.492 61.3438 246.492 61.5989C246.492 61.909 246.44 62.3617 246.337 62.9568C245.977 62.9568 242.743 62.9568 236.635 62.9568C236.383 62.1233 236.528 61.6733 237.072 61.6069C237.615 61.5404 238.066 61.4804 238.425 61.4268L242.935 59.4166C243.021 59.3779 243.123 59.4169 243.162 59.5036C243.162 59.5051 243.163 59.5066 243.164 59.5081L243.454 60.2112C243.956 60.4458 244.365 60.5632 244.679 60.5632C244.935 60.5632 245.288 60.46 245.738 60.2537L245.738 60.2537C245.91 60.1745 246.115 60.2503 246.194 60.423C246.197 60.4305 246.2 60.4381 246.203 60.4457Z" fill="#E4E4E4"/>
    <path fill-rule="evenodd" clip-rule="evenodd" d="M254.06 28.6602L247.828 25.923C246.736 24.835 245.681 24.008 244.665 23.4422C244.361 23.3454 243.841 23.3161 244.395 24.1256C244.949 24.9351 245.496 25.8115 245.275 26.0952C245.053 26.3789 244.412 26.0658 244.158 26.5271C243.989 26.8347 245.071 27.2026 247.402 27.6309L252.07 31.2098L254.06 28.6602ZM279.259 29.4141L275.734 30.1135C279.279 36.7197 281.18 40.221 281.437 40.6174C282.016 41.5092 281.476 43.1437 281.276 44.0045C282.528 44.2958 282.034 42.4123 283.618 42.8055C285.063 43.1645 286.289 44.0857 287.637 42.8433C287.802 42.6906 287.924 42.2132 287.359 41.9683C285.951 41.3582 283.872 40.2159 283.534 39.7724C283.075 39.1676 281.649 35.7149 279.259 29.4141Z" fill="#80B8FA"/>
    <path fill-rule="evenodd" clip-rule="evenodd" d="M266.154 16.2263L264.666 15.9712C261.427 19.1139 260.105 26.6641 257.946 27.6635C255.904 28.6084 253.011 27.6941 249.571 26.4595L248.518 28.813C251.643 32.194 258.301 35.0505 260.999 33.4198C265.314 30.8126 266.31 21.5005 266.154 16.2263Z" fill="#1D4370"/>
    <path fill-rule="evenodd" clip-rule="evenodd" d="M272.638 34.9186C266.674 34.9186 262.287 34.9186 259.477 34.9186C258.875 34.9186 258.989 34.0502 259.076 33.612C260.079 28.5547 263.996 23.1033 263.996 15.9044L267.792 15.3091C270.932 20.3591 272.018 26.5767 272.638 34.9186Z" fill="#DDE3E9"/>
    <path fill-rule="evenodd" clip-rule="evenodd" d="M273.95 29.7983C276.633 34.6378 278.889 38.122 280.716 40.251L283.475 39.7106C281.698 28.6901 276.552 20.5562 268.037 15.3091H267.352L266.534 15.3091C263.126 26.9263 262.186 34.6669 263.715 38.5308H275.562C275.375 35.7035 274.774 32.7136 273.95 29.7983H273.95Z" fill="#1B5BA6"/>
    <path d="M75.1107 145.839H79.6513L90.8406 141.461C90.8406 141.461 98.7866 138.218 98.138 144.38C97.4893 150.542 96.3542 158.812 96.3542 158.812C96.3542 158.812 92.7866 157.191 90.8406 157.677C88.8946 158.164 90.1919 147.785 90.1919 147.785C90.1919 147.785 74.2999 155.407 72.8404 154.434C71.381 153.461 71.0566 146.65 71.0566 146.65L75.1107 145.839Z" fill="#114077"/>
    <path opacity="0.1" d="M75.1107 145.839H79.6513L90.8406 141.461C90.8406 141.461 98.7866 138.218 98.138 144.38C97.4893 150.542 96.3542 158.812 96.3542 158.812C96.3542 158.812 92.7866 157.191 90.8406 157.677C88.8946 158.164 90.1919 147.785 90.1919 147.785C90.1919 147.785 74.2999 155.407 72.8404 154.434C71.381 153.461 71.0566 146.65 71.0566 146.65L75.1107 145.839Z" fill="#1B5BA6"/>
    <path d="M82.2645 131.62L87.7595 139.515L100.57 150.218C100.57 150.218 112.408 152.974 110.787 154.92C109.165 156.866 99.2732 152.974 99.2732 152.974C99.2732 152.974 84.5163 142.272 84.0298 141.461C83.5433 140.65 78.1919 133.028 78.1919 133.028L82.2645 131.62Z" fill="#72AAEB"/>
    <path opacity="0.1" d="M82.2645 131.62L87.7595 139.515L100.57 150.218C100.57 150.218 112.408 152.974 110.787 154.92C109.165 156.866 99.2732 152.974 99.2732 152.974C99.2732 152.974 84.5163 142.272 84.0298 141.461C83.5433 140.65 78.1919 133.028 78.1919 133.028L82.2645 131.62Z" fill="#80B8FA"/>
    <path d="M79.0026 125.244L82.5702 132.217C82.5702 132.217 81.7594 135.623 80.4621 135.947C79.1648 136.272 73.6512 131.731 73.6512 131.731L79.0026 125.244Z" fill="#1C5EAB"/>
    <path opacity="0.1" d="M79.0026 125.244L82.5702 132.217C82.5702 132.217 81.7594 135.623 80.4621 135.947C79.1648 136.272 73.6512 131.731 73.6512 131.731L79.0026 125.244Z" fill="#276BB9"/>
    <path d="M122.526 142.229L123.58 146.576C123.591 146.624 123.59 146.675 123.574 146.723L118.794 161.661C118.775 161.721 118.736 161.772 118.684 161.806C118.632 161.84 118.57 161.855 118.509 161.849C118.447 161.843 118.389 161.816 118.345 161.772C118.3 161.729 118.272 161.671 118.265 161.609L117.604 155.79C117.6 155.751 117.604 155.712 117.616 155.675L122.004 142.209C122.022 142.152 122.058 142.104 122.107 142.07C122.155 142.036 122.213 142.019 122.272 142.021C122.331 142.024 122.388 142.045 122.434 142.083C122.48 142.12 122.512 142.171 122.526 142.229Z" fill="#1B5BA6"/>
    <path d="M122.138 142.596L123.111 146.326L118.895 159.947L117.922 155.731L122.138 142.596Z" fill="#F2F2F2"/>
    <path d="M100.895 162.866C101.057 163.353 117.76 162.704 117.922 162.542C118.063 162.339 118.183 162.122 118.279 161.893C118.431 161.569 118.571 161.245 118.571 161.245L117.922 155.994L101.381 155.407C101.381 155.407 100.968 159.857 100.883 161.893C100.862 162.407 100.862 162.769 100.895 162.866Z" fill="#1B5BA6"/>
    <path opacity="0.1" d="M115.814 156.704L116.138 161.245H108.841V156.704H115.814Z" fill="black"/>
    <path opacity="0.1" d="M106.408 158.164L106.452 158.155L106.246 160.11H102.192V158.164H106.408Z" fill="black"/>
    <path opacity="0.1" d="M100.895 162.866C101.057 163.353 117.76 162.704 117.922 162.542C118.063 162.339 118.183 162.122 118.279 161.893H100.883C100.862 162.407 100.862 162.769 100.895 162.866Z" fill="black"/>
    <path d="M81.4352 122.974C85.4654 122.974 88.7325 119.707 88.7325 115.677C88.7325 111.647 85.4654 108.379 81.4352 108.379C77.405 108.379 74.1378 111.647 74.1378 115.677C74.1378 119.707 77.405 122.974 81.4352 122.974Z" fill="#80B8FA"/>
    <path d="M80.9487 122.163C80.9487 122.163 78.5162 126.379 78.0297 128.65C77.5432 130.92 70.7324 124.109 70.7324 124.109L69.8405 121.758C69.8405 121.758 76.2459 118.758 75.7594 116.325C75.2729 113.893 80.9487 122.163 80.9487 122.163Z" fill="#80B8FA"/>
    <path d="M82.2459 134.812L88.8946 143.569L104.787 155.407C104.787 155.407 116.3 157.839 113.706 159.623C111.111 161.407 103.651 158.001 103.651 158.001C103.651 158.001 87.5973 149.407 84.1919 145.839C80.7864 142.272 74.462 136.271 74.462 136.271L82.2459 134.812Z" fill="#80B8FA"/>
    <path d="M73.3268 148.434L75.2728 151.515L86.8865 147.861C89.4347 147.059 92.229 147.354 94.4892 148.778C96.5162 150.055 97.8135 152.082 94.8946 155.082C89.0567 161.082 85.1648 157.839 85.1648 157.839C85.1648 157.839 65.543 167.083 62.2997 162.542C59.0564 158.001 58.8943 155.731 58.8943 155.731C58.8943 155.731 71.3809 147.947 73.3268 148.434Z" fill="#1B5BA6"/>
    <path d="M97.6514 159.137C97.6514 159.137 102.841 162.542 96.6785 164.164C90.5162 165.785 85.9757 163.515 85.9757 163.515C85.9757 163.515 80.6243 163.515 80.6243 160.758C80.6243 158.001 82.4081 157.677 82.4081 157.677L87.9216 158.488C87.9216 158.488 94.5703 156.704 97.6514 159.137Z" fill="#D0CDE1"/>
    <path d="M87.4216 113.841C87.9182 114.062 88.4108 114.325 88.9507 114.389C89.4907 114.453 90.1056 114.265 90.3611 113.785C90.4992 113.525 90.5149 113.22 90.5214 112.927C90.5409 112.036 90.4765 111.073 89.9122 110.384C89.5531 109.946 89.0288 109.669 88.6571 109.241C88.3908 108.935 88.2135 108.563 88.0226 108.205C87.2997 106.847 86.2292 105.542 84.7416 105.15C84.1204 104.987 83.4687 104.995 82.8264 105.004L79.08 105.057C78.4738 105.065 77.8582 105.075 77.2778 105.251C76.0719 105.615 75.194 106.629 74.3899 107.599C73.7883 108.325 73.1851 109.058 72.7336 109.885C72.0863 111.092 71.759 112.445 71.7828 113.815C71.7778 114.166 71.8232 114.516 71.9175 114.855C72.0279 115.165 72.1646 115.466 72.3262 115.753C73.0288 117.133 73.446 118.856 72.6547 120.187C74.0292 119.626 75.3891 118.89 76.2957 117.714C76.7013 117.188 77.0194 116.572 77.5599 116.186C78.1005 115.801 78.9812 115.767 79.328 116.333C79.4472 116.563 79.5086 116.817 79.5068 117.076C79.5322 117.501 79.5315 117.942 79.7117 118.328C79.892 118.714 80.3214 119.026 80.7314 118.91C81.4375 118.711 81.3698 117.628 81.9137 117.135C82.3266 116.762 82.9638 116.833 83.4944 116.663C84.1126 116.466 84.5764 115.93 84.8407 115.337C85.0416 114.887 85.0387 113.708 85.4188 113.464C85.8956 113.158 86.9797 113.644 87.4216 113.841Z" fill="#2F2E41"/>
    <path d="M69.2611 120.989C69.5894 120.901 69.935 120.902 70.2629 120.991C71.3038 121.271 73.6374 122.01 74.1377 123.136C74.7864 124.596 77.0567 126.866 77.0567 126.866C77.0567 126.866 80.1378 129.947 79.4891 132.055C78.8405 134.163 76.408 136.596 76.408 136.596C76.408 136.596 77.0567 146.65 73.8134 149.245C70.5701 151.839 69.2728 150.055 69.2728 152.488C69.2728 154.92 59.2187 162.542 57.2727 157.839C57.2727 157.839 58.2457 149.082 57.9214 146.001C57.6017 142.965 58.0697 124.018 69.2611 120.989Z" fill="#134B8C"/>
    <path d="M74.4621 125.082C74.4621 125.082 84.3541 132.38 82.5703 135.461C82.5703 135.461 76.5702 138.38 75.2729 138.217C73.9756 138.055 68.9485 132.38 67.6512 131.893C66.3539 131.407 65.7053 122.65 74.4621 125.082Z" fill="#276BB9"/>
</svg>
