<svg width="24" height="24" viewBox="0 0 24 24" fill="none" xmlns="http://www.w3.org/2000/svg">
    
    <g mask="url(#mask0_106_2619)">
        <path d="M19.5576 10.6063C20.1876 9.9763 19.7414 8.89916 18.8505 8.89916H15.8319V1.75C15.8319 1.19772 15.3842 0.75 14.8319 0.75H8.68277C8.13049 0.75 7.68277 1.19772 7.68277 1.75V8.89916H4.66422C3.77331 8.89916 3.32714 9.9763 3.95711 10.6063L11.0502 17.6994C11.4408 18.0899 12.0739 18.0899 12.4645 17.6994L19.5576 10.6063ZM3.60819 21.1229C2.85808 21.1229 2.25 21.731 2.25 22.4811C2.25 23.2312 2.85808 23.8393 3.60819 23.8393H21.2647V23.1229C21.2647 22.0183 20.3693 21.1229 19.2647 21.1229H3.60819Z" fill="#D9E4EE"/>
    </g>
</svg>
