<svg width="32" height="32" viewBox="0 0 32 32" fill="none" xmlns="http://www.w3.org/2000/svg">

    <g mask="url(#mask0_60_82)">
        <path d="M25.8995 6.10055C23.2552 3.4563 19.7395 2.00008 15.9999 2.00008C13.484 2.00008 11.0411 2.66798 8.89254 3.93646L7.19641 2.24032C6.9618 2.00566 6.60895 1.9355 6.30243 2.06248C5.99591 2.18946 5.79602 2.48855 5.79602 2.82034V6.74537C5.79602 7.1984 6.1633 7.56568 6.61634 7.56568H10.5414C10.8732 7.56568 11.1724 7.36586 11.2993 7.05928C11.4262 6.75275 11.356 6.39991 11.1214 6.1653L10.0959 5.13975C11.9005 4.15663 13.9218 3.64065 16 3.64065C22.8149 3.64065 28.3594 9.18503 28.3594 16C28.3594 22.815 22.8149 28.3594 16 28.3594C9.18501 28.3594 3.64062 22.815 3.64062 16C3.64062 15.547 3.27334 15.1797 2.82031 15.1797C2.36728 15.1797 2 15.547 2 16C2 19.7396 3.45622 23.2553 6.10047 25.8994C8.74477 28.5438 12.2605 30 15.9999 30C19.7394 30 23.2552 28.5437 25.8995 25.8994C28.5438 23.2552 30 19.7395 30 16C30 12.2606 28.5437 8.7448 25.8995 6.10055Z" fill="#98A8BA"/>
        <path d="M22.3748 17.4619H15.5988V10.686C15.5988 9.99637 15.0398 9.43739 14.3502 9.43739C13.6606 9.43739 13.1016 9.99645 13.1016 10.686V18.7106C13.1016 19.4002 13.6606 19.9592 14.3502 19.9592H22.3748C23.0643 19.9592 23.6234 19.4002 23.6234 18.7106C23.6234 18.021 23.0643 17.4619 22.3748 17.4619Z" fill="#98A8BA"/>
    </g>
</svg>
