<svg width="26" height="25" viewBox="0 0 26 25" fill="none" xmlns="http://www.w3.org/2000/svg">
    <path d="M21.0093 0.485437C21.0093 0.217338 20.7931 0 20.5263 0H0.482972C0.216234 0 0 0.217337 0 0.485437V24.5146C0 24.7827 0.216234 25 0.482972 25H23.9071C24.1739 25 24.3901 24.7827 24.3901 24.5146V8.25243C24.3901 7.98433 24.1739 7.76699 23.9071 7.76699H21.4923C21.2255 7.76699 21.0093 7.98433 21.0093 8.25243V21.1165C21.0093 21.3846 20.7931 21.6019 20.5263 21.6019H3.86378C3.59704 21.6019 3.3808 21.3846 3.3808 21.1165L3.3808 3.8835C3.3808 3.6154 3.59704 3.39806 3.86378 3.39806H20.5263C20.7931 3.39806 21.0093 3.18072 21.0093 2.91262V0.485437Z" fill="#98A8BA"/>
    <path d="M12.0997 7.52427L15.2367 12.9854H8.96274L12.0997 7.52427Z" fill="#98A8BA"/>
    <path d="M12.0997 18.4466L15.2367 12.9854H8.96274L12.0997 18.4466Z" fill="#98A8BA"/>
    <path d="M17.6285 12.8896L12.195 16.0426V9.73662L17.6285 12.8896Z" fill="#98A8BA"/>
    <path d="M6.76161 13.0813L12.195 16.2343V9.92824L6.76161 13.0813Z" fill="#98A8BA"/>
    <path d="M23.009 1.21359L24.7517 4.24757H21.2662L23.009 1.21359Z" fill="#98A8BA"/>
    <path d="M23.009 7.28155L24.7517 4.24757H21.2662L23.009 7.28155Z" fill="#98A8BA"/>
    <path d="M26 4.44984L22.9814 6.20151V2.69817L26 4.44984Z" fill="#98A8BA"/>
    <path d="M20.0433 4.3008L23.0619 6.05247V2.54913L20.0433 4.3008Z" fill="#98A8BA"/>
</svg>
